<svg width="197" height="124" viewBox="0 0 197 124" fill="none" xmlns="http://www.w3.org/2000/svg">
<g clip-path="url(#clip0)">
<path d="M151.439 93.661C159.532 73.4063 157.084 50.7898 146.646 33.4198L37.3823 48.5643L142.091 26.7195C97.9609 -28.369 12.0675 8.17053 20.3472 77.7237L151.439 93.661Z" fill="#E6E6E6"/>
<path d="M156.256 71.2715H17.0527V114.663H156.256V71.2715Z" fill="#3F7BB6"/>
<path d="M55.8758 65.9795C57.1248 66.9504 57.5815 67.2638 57.8474 67.2241C70.7339 70.9806 59.437 75.383 53.1758 67.9101L55.8758 65.9795Z" fill="#FFB8B8"/>
<path d="M13.3535 105.667V114.487L19.6968 114.134L17.9349 104.962L13.3535 105.667Z" fill="#FFB8B8"/>
<path d="M48.5935 105.667V114.487L42.25 114.134L44.0121 104.962L48.5935 105.667Z" fill="#FFB8B8"/>
<path d="M29.2109 60.1594L38.726 59.8066C60.6762 82.8423 52.3751 77.5883 51.7653 109.196L40.1357 105.668L42.6026 83.7957C42.6038 83.7949 43.2533 83.3614 42.7134 83.3514C39.337 84.5129 36.8735 70.1319 29.5633 71.8012C21.2446 71.4028 19.8904 83.756 16.524 83.7957L18.9909 105.668L7.36134 109.196C6.05924 74.4624 -0.322382 82.3087 20.4006 59.8066L29.2109 60.1594Z" fill="#2F2E41"/>
<path d="M15.1149 111.665C15.1149 111.665 13.7053 108.842 11.9432 110.254C10.1812 111.665 5.9522 115.898 5.9522 115.898C5.9522 115.898 -4.26775 120.484 2.07567 123.306C8.41909 126.129 13.7053 119.426 13.7053 119.426C19.7473 118.165 23.2324 117.357 20.0282 110.76C18.209 111.548 15.6347 112.46 15.1149 111.665Z" fill="#2F2E41"/>
<path d="M46.8317 111.665C46.8317 111.665 48.2413 108.842 50.0034 110.254C51.7655 111.665 55.9944 115.898 55.9944 115.898C55.9944 115.898 66.2144 120.484 59.8709 123.306C53.5275 126.129 48.2413 119.426 48.2413 119.426C42.1993 118.165 38.7143 117.357 41.9184 110.76C43.7376 111.548 46.3119 112.46 46.8317 111.665Z" fill="#2F2E41"/>
<path d="M38.7278 20.2941C38.2037 29.0763 26.2305 28.3031 26.041 20.2941C26.5651 11.512 38.5383 12.2852 38.7278 20.2941Z" fill="#FFB8B8"/>
<path d="M29.5645 24.8806C32.6474 34.2082 25.3687 29.1299 35.5555 36.5224L39.432 28.7612C39.432 28.7612 36.6127 27.7029 36.9651 23.8223L29.5645 24.8806Z" fill="#FFB8B8"/>
<path d="M48.5942 30.1728L38.0889 27.7725C38.3844 34.1134 31.6245 32.8372 30.445 29.6476L20.4012 35.4645C24.6169 51.1818 23.5485 51.8304 17.9343 61.923C15.7918 63.8816 18.996 65.0041 21.7855 63.9324C23.9132 62.6179 24.9937 61.4497 27.2734 61.747C38.046 63.9924 47.0139 64.5224 48.4332 63.645C48.941 62.9174 48.4185 30.2991 48.5942 30.1728Z" fill="#575A89"/>
<path d="M45.7754 30.878C46.1278 30.878 47.9431 30.0236 47.9431 30.0236C53.2246 29.9345 56.7688 65.4979 57.0526 66.5088L53.5285 68.9783L47.8899 54.5143L45.7754 30.878Z" fill="#575A89"/>
<path d="M21.1055 72.1538C21.2857 73.4852 21.5923 88.4368 26.9428 81.4526C27.6447 76.3571 25.2581 74.836 24.6296 71.4482L21.1055 72.1538Z" fill="#FFB8B8"/>
<path d="M22.5161 35.4644L21.4363 34.8651C18.5414 34.7699 19.4538 42.4408 18.229 48.0585C17.2284 54.603 17.5133 61.8192 18.6872 71.467C18.7899 75.0073 25.1244 72.777 26.0402 72.5063C26.0402 72.5063 23.9258 58.0423 24.983 55.5729C26.0402 53.1034 22.5161 35.4644 22.5161 35.4644Z" fill="#575A89"/>
<path d="M38.4491 14.139C37.4705 12.5481 35.9386 11.3758 34.1484 10.8477L32.8335 11.9007L33.3447 10.6725C32.9148 10.6068 32.4797 10.5816 32.045 10.5973L30.862 12.12L31.3516 10.6494C26.275 11.1951 23.2714 17.029 25.9069 21.112C26.3135 19.8613 26.8069 18.6877 27.2135 17.437C27.533 17.4806 27.8568 17.4822 28.1768 17.4417L28.6714 16.2864L28.8096 17.3929C30.3427 17.2591 32.6166 16.9656 34.0701 16.6966L33.9287 15.8478L34.7743 16.5532C35.2196 16.4506 35.484 16.3575 35.4621 16.2864C36.5431 18.0308 37.6141 19.145 38.695 20.8895C39.1054 18.4289 39.8297 16.3836 38.4491 14.139Z" fill="#2F2E41"/>
<path d="M147.924 76.5059H117.182V91.1042H147.924V76.5059Z" fill="white"/>
<path d="M142.11 79.5635H122.994V81.3139H142.11V79.5635Z" fill="#E6E6E6"/>
<path d="M142.11 82.9297H122.994V84.6801H142.11V82.9297Z" fill="#E6E6E6"/>
<path d="M142.11 86.2959H122.994V88.0463H142.11V86.2959Z" fill="#E6E6E6"/>
<path d="M90.4101 79.9735L89.4101 78.2398L88.4102 76.5059L87.4102 78.2398L86.4102 79.9735H87.4846V84.9943H89.3356V79.9735H90.4101Z" fill="white"/>
<path d="M158.168 115.698C162.715 115.698 166.402 112.008 166.402 107.456C166.402 102.903 162.715 99.2129 158.168 99.2129C153.62 99.2129 149.934 102.903 149.934 107.456C149.934 112.008 153.62 115.698 158.168 115.698Z" fill="#3F3D56"/>
<path d="M159.667 111.109C161.682 111.109 163.316 109.473 163.316 107.456C163.316 105.438 161.682 103.803 159.667 103.803C157.651 103.803 156.018 105.438 156.018 107.456C156.018 109.473 157.651 111.109 159.667 111.109Z" fill="#E6E6E6"/>
<path d="M152.976 113.216L170.941 120.709L170.38 122.489L160.04 121.318L142.543 113.544L152.274 114.668L152.976 113.216Z" fill="#3F3D56"/>
<path d="M168.855 120.372L191.199 47.0006L196.64 37.3276L196.659 37.2342C196.677 37.1489 197.076 35.1271 196.094 33.6629C195.846 33.2989 195.526 32.9899 195.154 32.7552C194.781 32.5204 194.365 32.365 193.93 32.2985C190.927 31.7348 184.209 31.4571 183.924 31.4456L183.87 31.4434L183.817 31.4506C183.634 31.4757 179.34 32.104 178.369 35.8571L173.698 44.3675L173.68 44.4281L152.533 114.023L153.697 114.377L174.825 44.843L179.512 36.3039L179.531 36.2254C180.217 33.4011 183.499 32.7404 183.935 32.6648C184.621 32.6941 190.936 32.9754 193.706 33.4953C193.981 33.5328 194.245 33.6271 194.482 33.7722C194.718 33.9172 194.923 34.1099 195.081 34.338C195.687 35.2357 195.535 36.5574 195.482 36.9049L190.074 46.5186L190.055 46.5821L167.692 120.017L168.855 120.372Z" fill="#3F3D56"/>
<path d="M172.122 51.4033L171.906 52.6016L188.043 55.5191L188.26 54.3209L172.122 51.4033Z" fill="#3F3D56"/>
<path d="M169.108 61.3685L168.865 62.5615L184.887 65.8349L185.13 64.6419L169.108 61.3685Z" fill="#3F3D56"/>
<path d="M163.743 79.1917L163.408 80.3623L179.051 84.8429L179.385 83.6723L163.743 79.1917Z" fill="#3F3D56"/>
<path d="M174.322 113.736L174.765 112.602L159.582 106.651L158.837 98.5696L173.008 103.868L177.599 110.518L178.6 109.826L173.791 102.861L157.447 96.75L158.44 107.511L174.322 113.736Z" fill="#3F3D56"/>
<path d="M179.595 123.566C184.143 123.566 187.83 119.876 187.83 115.324C187.83 110.771 184.143 107.081 179.595 107.081C175.048 107.081 171.361 110.771 171.361 115.324C171.361 119.876 175.048 123.566 179.595 123.566Z" fill="#3F3D56"/>
<path d="M181.749 119.352C183.764 119.352 185.398 117.716 185.398 115.699C185.398 113.681 183.764 112.046 181.749 112.046C179.733 112.046 178.1 113.681 178.1 115.699C178.1 117.716 179.733 119.352 181.749 119.352Z" fill="#E6E6E6"/>
</g>
<defs>
<clipPath id="clip0">
<rect width="196.755" height="124" fill="white"/>
</clipPath>
</defs>
</svg>
